Coordinates
version=1
nRows=25
nColumns=33
inDegrees=yes

Units are S.I. units (second, meters, Newtons, ...)
Angles are in degrees.

endheader
time	ground_thorax_rot_x	ground_thorax_rot_y	ground_thorax_rot_z	ground_thorax_tx	ground_thorax_ty	ground_thorax_tz	clav_prot_r	clav_elev_r	scapula_abduction_r	scapula_elevation_r	scapula_upward_rot_r	scapula_winging_r	shoulder_elv_r	plane_of_elev_r	axial_rot_r	elbow_flexion_r	pro_sup_r	wrist_flex_r	wrist_dev_r	clav_prot_l	clav_elev_l	scapula_abduction_l	scapula_elevation_l	scapula_upward_rot_l	scapula_winging_l	shoulder_elv_l	plane_of_elev_l	axial_rot_l	elbow_flexion_l	pro_sup_l	wrist_flex_l	wrist_dev_l	
2.6400	37.631030	11.901530	15.532538	-219.900897	843.170286	9.280726	15.036897	37.788491	38.751508	45.000000	-45.000000	1710.385380	-287.821199	31.063879	68.765439	385.200180	156.435111	12.767220	4.648641	10.697992	-45.000000	-38.275447	45.000000	-45.030506	-3498.934532	438.218535	19.295792	-48.572707	741.775185	139.645101	-2.964108	-13.542971	
2.6500	37.642077	11.998601	15.621707	-219.847589	842.483758	8.900682	15.009686	37.763226	38.633686	45.000000	-45.000000	1710.510425	-287.802876	31.059351	68.341431	385.258489	156.044045	12.713706	4.669734	10.671971	-45.000000	-38.256338	45.000000	-45.022946	-3498.931085	438.180867	19.242596	-48.823742	741.752543	139.049955	-2.987742	-13.571724	
2.6600	37.650031	12.096551	15.704088	-219.723832	841.775609	8.528504	14.972923	37.750056	38.492022	45.000000	-45.000000	1710.658384	-287.761217	31.059893	67.905358	385.322755	155.733172	12.634859	4.728594	10.632625	-45.000000	-38.264164	45.000000	-44.988927	-3498.929348	438.155109	19.178984	-49.076857	741.731065	138.440524	-3.039170	-13.605374	
2.6700	37.650371	12.222552	15.830690	-219.441821	841.011042	8.170233	14.932320	37.726253	38.376357	45.000000	-45.000000	1710.779851	-287.747297	31.069854	67.530263	385.377776	155.572801	12.583789	4.757439	10.642831	-45.000000	-38.271302	45.000000	-44.985146	-3498.933215	438.108853	19.139454	-49.221064	741.715981	137.824181	-3.076156	-13.645245	
2.6800	37.646467	12.365699	15.981370	-219.004252	840.199285	7.828144	14.885384	37.698518	38.268704	45.000000	-45.000000	1710.892943	-287.740674	31.090044	67.180427	385.426759	155.573345	12.541204	4.779768	10.677202	-45.000000	-38.289220	45.000000	-44.987621	-3498.943385	438.053521	19.110941	-49.301057	741.704648	137.193205	-3.111426	-13.688723	
2.6900	37.638205	12.525759	16.153775	-218.406823	839.347193	7.504842	14.824384	37.670097	38.164039	45.000000	-45.000000	1711.003911	-287.732324	31.118270	66.843658	385.471971	155.743027	12.503234	4.799953	10.733096	-45.000000	-38.323080	45.000000	-44.994372	-3498.958487	437.991445	19.091357	-49.327697	741.699616	136.549047	-3.146406	-13.734554	
2.7000	37.636908	12.677260	16.327181	-217.674016	838.475219	7.201606	14.769658	37.647259	38.093787	45.000000	-45.000000	1711.099405	-287.737262	31.151684	66.507991	385.503253	156.065231	12.470584	4.815034	10.789506	-45.000000	-38.346537	45.000000	-44.999997	-3498.985267	437.924435	19.084275	-49.323328	741.690705	135.893998	-3.174637	-13.778469	
2.7100	37.638696	12.818905	16.496836	-216.844361	837.610427	6.919390	14.711467	37.630331	38.041467	45.000000	-45.000000	1711.196151	-287.737914	31.183871	66.157583	385.529496	156.500727	12.434395	4.834485	10.840790	-45.000000	-38.374057	45.000000	-44.999994	-3499.015491	437.859756	19.078609	-49.317234	741.684038	135.242847	-3.202875	-13.819500	
2.7200	37.646878	12.949270	16.656312	-215.957025	836.780512	6.659655	14.673408	37.620458	38.015171	45.000000	-45.000000	1711.275455	-287.747137	31.217397	65.795586	385.546038	157.003490	12.401198	4.846947	10.879696	-45.000000	-38.393393	45.000000	-44.999990	-3499.054448	437.801212	19.075877	-49.314455	741.679483	134.623017	-3.221954	-13.852669	
2.7300	37.651956	13.076404	16.809599	-215.047594	836.012717	6.424830	14.641502	37.612878	37.987442	45.000000	-45.000000	1711.351181	-287.748220	31.254776	65.416777	385.561573	157.528472	12.364886	4.858770	10.913656	-45.000000	-38.423162	45.000000	-44.999981	-3499.092122	437.753913	19.068944	-49.327391	741.682334	134.070034	-3.238185	-13.877630	
2.7400	37.660844	13.186801	16.941930	-214.144312	835.332297	6.218009	14.632712	37.613001	37.980690	45.000000	-45.000000	1711.404543	-287.753240	31.298386	65.025623	385.569593	158.046553	12.327878	4.862820	10.935264	-45.000000	-38.444337	45.000000	-44.999967	-3499.134273	437.718265	19.064901	-49.354874	741.691038	133.612833	-3.246744	-13.889363	
2.7500	37.664478	13.285161	17.059346	-213.264610	834.760100	6.042307	14.628549	37.612579	37.973576	45.000000	-45.000000	1711.452514	-287.746183	31.349182	64.621964	385.578451	158.538291	12.284600	4.862825	10.955719	-45.000000	-38.475270	45.000000	-44.999940	-3499.169720	437.695239	19.058373	-49.401799	741.710585	133.280795	-3.253728	-13.888007	
2.7600	37.667928	13.368719	17.153458	-212.413374	834.310101	5.900105	14.633516	37.616294	37.975504	45.000000	-45.000000	1711.485413	-287.732763	31.405425	64.209041	385.586723	159.004134	12.234650	4.855067	10.972098	-45.000000	-38.507143	45.000000	-44.999893	-3499.203655	437.683920	19.055219	-49.460782	741.743134	133.092158	-3.257311	-13.869804	
2.7700	37.666454	13.436880	17.229354	-211.582808	833.986458	5.792289	14.629557	37.616407	37.981677	45.000000	-45.000000	1711.515143	-287.708465	31.464910	63.786272	385.597569	159.456271	12.175278	4.841417	10.995068	-45.000000	-38.546647	45.000000	-44.999808	-3499.229663	437.680377	19.056125	-49.529335	741.785866	133.057279	-3.260980	-13.836746	
2.7800	37.667891	13.482282	17.280859	-210.754540	833.782010	5.717863	14.621141	37.618166	38.013860	45.000000	-45.000000	1711.534230	-287.683664	31.522974	63.358499	385.605557	159.918118	12.108525	4.818500	11.021745	-45.000000	-38.578776	45.000000	-44.999656	-3499.254734	437.680843	19.068398	-49.597324	741.837441	133.173607	-3.263348	-13.788358	
2.7900	37.666260	13.514901	17.321104	-209.903070	833.678200	5.673962	14.600633	37.613145	38.058355	45.000000	-45.000000	1711.555667	-287.653873	31.579622	62.927620	385.612324	160.409155	12.034069	4.789521	11.058379	-45.000000	-38.614083	45.000000	-44.999384	-3499.276671	437.683085	19.086001	-49.665735	741.897318	133.441846	-3.268373	-13.728134	
2.8000	37.664869	13.535816	17.351573	-208.999313	833.647320	5.656220	14.575060	37.605667	38.124251	45.000000	-45.000000	1711.575284	-287.632465	31.635381	62.497099	385.609449	160.948509	11.956465	4.753537	11.101097	-45.000000	-38.633739	45.000000	-44.998897	-3499.302443	437.687302	19.114346	-49.734632	741.963069	133.865584	-3.273135	-13.655354	
2.8100	37.667201	13.541616	17.373483	-208.014206	833.656214	5.659521	14.559936	37.597535	38.215199	45.000000	-45.000000	1711.586053	-287.624420	31.704407	62.073020	385.594224	161.554105	11.878386	4.711871	11.139261	-45.000000	-38.626776	45.000000	-44.998025	-3499.339555	437.690189	19.152278	-49.810151	742.032365	134.450934	-3.276417	-13.570555	
2.8200	37.673594	13.537474	17.393942	-206.920721	833.670835	5.678889	14.557634	37.590983	38.333794	45.000000	-45.000000	1711.589739	-287.634862	31.784977	61.661006	385.564147	162.236118	11.801893	4.666765	11.171296	-45.000000	-38.588143	45.000000	-44.996458	-3499.388265	437.691528	19.199821	-49.896060	742.104567	135.198340	-3.276344	-13.473231	
2.8300	37.681613	13.540462	17.421564	-205.695585	833.660224	5.710376	14.571306	37.587563	38.462161	45.000000	-45.000000	1711.591413	-287.654084	31.875616	61.264578	385.530297	162.998526	11.724728	4.622060	11.189806	-45.000000	-38.538749	45.000000	-44.993668	-3499.450130	437.690349	19.247863	-49.994871	742.188238	136.101779	-3.274000	-13.362940	
2.8400	37.686589	13.563231	17.465837	-204.318893	833.599194	5.751652	14.591431	37.587140	38.589295	45.000000	-45.000000	1711.602173	-287.682678	31.967210	60.882961	385.493903	163.840386	11.646326	4.579527	11.203347	-45.000000	-38.489491	45.000000	-44.988621	-3499.520984	437.687098	19.294388	-50.103796	742.282109	137.149876	-3.269263	-13.240242	
2.8500	37.689750	13.619982	17.526828	-202.774507	833.469145	5.802209	14.625222	37.594437	38.695003	45.000000	-45.000000	1711.623824	-287.704553	32.062142	60.517390	385.467045	164.764550	11.562982	4.538797	11.203222	-45.000000	-38.464621	45.000000	-44.979720	-3499.606043	437.680864	19.330160	-50.217409	742.397142	138.335737	-3.263946	-13.103849	
2.8600	37.691664	13.709702	17.603872	-201.049344	833.257405	5.863130	14.675150	37.613634	38.785512	45.000000	-45.000000	1711.657198	-287.725919	32.157731	60.168935	385.446019	165.775247	11.473957	4.497558	11.195205	-45.000000	-38.468969	45.000000	-44.963383	-3499.704587	437.670483	19.354809	-50.330186	742.528424	139.653761	-3.258480	-12.954474	
2.8700	37.696620	13.827905	17.696487	-199.133442	832.955454	5.936483	14.770014	37.659830	38.878164	45.000000	-45.000000	1711.701104	-287.747771	32.242888	59.855176	385.431628	166.894441	11.376753	4.453606	11.150929	-45.000000	-38.495788	45.000000	-44.935219	-3499.824858	437.658565	19.359404	-50.432510	742.680466	141.129444	-3.252123	-12.788410	
2.8800	37.707168	13.959835	17.797826	-197.019100	832.557110	6.024546	14.888672	37.722892	38.987237	45.000000	-45.000000	1711.749006	-287.784066	32.326495	59.573470	385.409387	168.129479	11.273038	4.404985	11.098923	-45.000000	-38.532382	45.000000	-44.881698	-3499.960885	437.638631	19.354159	-50.539555	742.839298	142.750477	-3.247235	-12.610020	
